<svg id="bold" height="512" viewBox="0 0 32 32" width="512" xmlns="http://www.w3.org/2000/svg"><path d="m26 32h-20c-3.314 0-6-2.686-6-6v-20c0-3.314 2.686-6 6-6h20c3.314 0 6 2.686 6 6v20c0 3.314-2.686 6-6 6z" fill="#f5e6fe"/><path d="m17.667 24c-.222 0-.431-.111-.555-.297l-1.135-1.703h-1.31c-.369 0-.667-.298-.667-.667s.299-.667.667-.667h1.667c.223 0 .431.111.555.297l.696 1.044 1.486-2.973c.109-.217.327-.359.571-.368.259-.006.472.115.597.323l1.805 3.011h1.289c.369 0 .667.299.667.667s-.299.667-.667.667h-1.667c-.234 0-.451-.123-.572-.324l-1.375-2.292-1.457 2.914c-.106.213-.318.353-.555.367-.013.001-.027.001-.04.001z" fill="#d9a4fc"/><g fill="#be63f9"><circle cx="14" cy="11.333" r="3.333"/><path d="m12.667 21.333c0-1.103.897-2 2-2h1.667c.346 0 .679.089.972.251l.573-1.146c.291-.581.846-.961 1.476-1.063-.608-.829-1.581-1.375-2.688-1.375h-5.333c-1.842 0-3.334 1.492-3.334 3.333v2.167c0 .276.224.5.5.5h4.29c-.075-.21-.123-.432-.123-.667z"/></g></svg>