<?xml version="1.0" encoding="utf-8"?>
<!-- Generator: Adobe Illustrator 25.0.1, SVG Export Plug-In . SVG Version: 6.00 Build 0)  -->
<svg version="1.0" id="Layer_1" xmlns="http://www.w3.org/2000/svg" xmlns:xlink="http://www.w3.org/1999/xlink" x="0px" y="0px"
	 viewBox="0 0 844 526" style="enable-background:new 0 0 844 526;" xml:space="preserve">
<style type="text/css">
	.st0{fill:#01e2ce;}
	.st1{fill:none;}
</style>
<path class="st0" d="M229,180.1c-11.8-11.8-29.3-13-56.4-13h-53c-27.1,0-44.6,1.1-56.4,13C48,195.3,50.1,220.7,50.1,263
	s-1.7,67.7,13.5,82.9c11.8,11.8,29.9,13,56.4,13h51.9c27.1,0,45.1-1.1,57-13c15.3-15.2,13-41.2,13-82.9S244.2,195.3,229,180.1z
	 M233.5,277.7c0,31,0.6,51.9-10.7,62.6c-9,9-23.7,10.7-50.8,10.7h-52.5c-27.1,0-41.2-1.7-50.2-10.7c-11.3-11.3-11.3-31.6-11.3-65.4
	v-25.9c0-32.1-0.6-51.3,10.7-62.6c9-9,23.7-10.7,50.8-10.7h53c27.1,0,41.7,1.7,50.8,10.7c10.7,10.7,10.2,31.6,10.2,62.6L233.5,277.7
	z M165.8,242.1L150.6,254v-46.8c0-2.2-1.8-4-4-4c-0.2,0-0.3,0-0.5,0c-1.1,0-1.7,0.6-2.8,1.1l-48,38.4c-5.6,3.9-9.1,10.1-9.6,16.9
	c-0.8,6.9,1.3,13.8,5.6,19.2c3.9,5.6,10.1,9.1,16.9,9.6c6.9,0.8,13.8-1.3,19.2-5.6l14.6-11.2v46.8c-0.1,2.3,1.6,4.3,3.9,4.5
	c1.1,0,1.7-0.6,2.8-1.1l49.1-38.9c11.1-8.8,13.1-24.8,4.5-36.1c-9-11.1-25.2-13.1-36.7-4.5H165.8z M142.2,260.7l-19.8,15.8
	c-3.6,3-8.4,4.2-13,3.4c-4.4-0.6-8.5-2.8-11.3-6.2c-2.9-3.7-4.3-8.3-4-13c0.6-4.4,2.8-8.4,6.2-11.3l41.7-33.3L142.2,260.7z
	 M199.2,264.7c-0.6,4.4-2.8,8.5-6.3,11.3l-42.3,33.2v-44.5l20.3-16.4c7.2-6,17.9-4.9,23.8,2.3c0.1,0.2,0.3,0.4,0.4,0.5
	C198.3,254.9,199.7,259.8,199.2,264.7L199.2,264.7z"/>
<path class="st0" d="M468.4,223.1c-11.4-1.7-22.9,2.5-30.4,11.3h-0.6v-50.8h-23.7v143.8h23.7v-62c0.3-12.5,10.6-22.3,23-22.1
	c12.1,0.3,21.8,10,22.1,22.1V328h23.7v-67.1c0.2-10.4-3.9-20.4-11.3-27.6C487.6,226.8,478.2,223.2,468.4,223.1z M692.3,223.7
	c-6.7-1.1-13.6-0.9-20.3,0.6c-6.7,1.8-12.8,5.5-17.5,10.7H654v-9h-23.7l-0.6,102h23.8l0.6-49.6c0-4.9,0.5-9.9,1.7-14.7
	c4-16.4,22.6-19.7,36.7-17.5L692.3,223.7z M792.7,260.9c-3.1-14.3-12.7-26.4-26-32.7c-14.8-6.9-31.7-7.3-46.8-1.1
	c-22.6,9.4-30.5,34.2-30.5,49.6c0,20.8,10.3,54.1,53,54.1c18.9,0.4,36.6-9,46.9-24.8l-14.7-11.8c-3.9,5.6-9.2,10.3-15.2,13.5
	c-5.4,2.3-11.1,3.4-16.9,3.4c-8.2,0-16.1-3.2-22-9c-4.6-4.5-7.2-10.5-7.3-16.9h80.1C794.4,277.1,794.2,268.9,792.7,260.9
	L792.7,260.9z M713.7,269.4c1-15.9,14.6-27.9,30.5-27.1c7,0.4,13.7,3.4,18.6,8.5c4.7,5,7.1,11.7,6.8,18.6H713.7z M394.5,275.6
	c-3.5-2.3-7.3-4.1-11.3-5.3c-7.7-2.1-25.4-6.4-30.5-7.8c-4.3-0.9-8.3-2.6-11.9-5.1c-3.9-3.5-4.3-9.5-0.8-13.4
	c1.1-1.3,2.6-2.2,4.2-2.7c12.9-4.2,27.2-0.8,36.7,9l14.7-11.2c-13-20.3-48-22-66-11.3c-9.5,5-15.1,15.2-14.1,25.9
	c1.1,11.4,9.2,20.9,20.3,23.7c11.3,3.7,27.6,6.6,34.4,8.5s11.3,5.6,11.7,10.5c0.5,17.4-28.2,15.4-37,10.9
	c-5.2-2.7-9.4-6.8-12.4-11.8l-15.8,12.7c5,9,13.6,15.6,23.7,18c17.7,4.7,44.5,4.5,58.5-13.9c3.7-4.7,5.6-10.6,5.2-16.5
	C404.7,287.8,401,280.1,394.5,275.6z M568.9,330.7c8.1-0.1,16.1-1.6,23.7-4.5c12.5-5,22-15.4,25.9-28.2c4.5-13.9,4.5-28.9,0-42.9
	c-4.8-12.6-14.6-22.6-27.1-27.6c-14.6-5-30.5-5-45.1,0c-12.5,5-22.3,15.1-27.1,27.6c-4.5,13.9-4.5,28.9,0,42.9
	c3.9,12.8,13.5,23.2,25.9,28.2C552.8,329.1,560.8,330.6,568.9,330.7L568.9,330.7z M546.4,302c-8.5-9.6-9-27.1-5.6-38.9
	c5.3-15.6,22.2-23.9,37.7-18.6c8.8,3,15.7,9.9,18.6,18.6c3.4,11.8,2.8,29.3-5.6,38.9C578.8,314,559,314,546.4,302z"/>
<rect x="22" y="141" class="st1" width="800" height="244"/>
</svg>
